<svg width="43" height="44" viewBox="0 0 43 44" fill="none" xmlns="http://www.w3.org/2000/svg">
<path d="M36.6953 11.4126L27.4714 2.06259C26.9366 1.51259 26.2014 1.23759 25.4661 1.23759H9.42446C7.15189 1.23759 5.21352 3.16259 5.21352 5.56884V38.5688C5.21352 40.9063 7.08505 42.9 9.42446 42.9H33.2865C35.559 42.9 37.4974 40.975 37.4974 38.5688V13.4751C37.4974 12.7188 37.23 11.9626 36.6953 11.4126ZM27.5382 6.46259L32.5512 11.5501H27.5382V6.46259ZM33.3533 39.7375H9.42446C8.75606 39.7375 8.22134 39.1875 8.22134 38.5V5.50009C8.22134 4.81259 8.75606 4.26259 9.42446 4.26259H24.5304V13.0626C24.5304 13.8876 25.1988 14.6438 26.0677 14.6438H34.5564V38.5C34.4896 39.1875 33.9549 39.7375 33.3533 39.7375Z" fill="#23252A"/>
<path d="M26.0009 20.0064H14.4375C13.6354 20.0064 12.9002 20.6939 12.9002 21.5877C12.9002 22.4814 13.5686 23.1689 14.4375 23.1689H26.0009C26.8029 23.1689 27.5382 22.4814 27.5382 21.5877C27.5382 20.6939 26.8698 20.0064 26.0009 20.0064Z" fill="#23252A"/>
<path d="M26.0009 27.5689H14.4375C13.6354 27.5689 12.9002 28.2564 12.9002 29.1502C12.9002 30.0439 13.5686 30.7314 14.4375 30.7314H26.0009C26.8029 30.7314 27.5382 30.0439 27.5382 29.1502C27.5382 28.2564 26.8698 27.5689 26.0009 27.5689Z" fill="#23252A"/>
</svg>
