<svg width="16" height="16" viewBox="0 0 16 16" fill="none" xmlns="http://www.w3.org/2000/svg">
<g clip-path="url(#clip0_1527_27531)">
<path d="M8.80039 7.99941L14.9004 1.89941C15.1254 1.67441 15.1254 1.32441 14.9004 1.09941C14.6754 0.874414 14.3254 0.874414 14.1004 1.09941L8.00039 7.19941L1.90039 1.09941C1.67539 0.874414 1.32539 0.874414 1.10039 1.09941C0.875391 1.32441 0.875391 1.67441 1.10039 1.89941L7.20039 7.99941L1.10039 14.0994C0.875391 14.3244 0.875391 14.6744 1.10039 14.8994C1.20039 14.9994 1.35039 15.0744 1.50039 15.0744C1.65039 15.0744 1.80039 15.0244 1.90039 14.8994L8.00039 8.79941L14.1004 14.8994C14.2004 14.9994 14.3504 15.0744 14.5004 15.0744C14.6504 15.0744 14.8004 15.0244 14.9004 14.8994C15.1254 14.6744 15.1254 14.3244 14.9004 14.0994L8.80039 7.99941Z" fill="black"/>
</g>
<defs>
<clipPath id="clip0_1527_27531">
<rect width="16" height="16" fill="white"/>
</clipPath>
</defs>
</svg>
