<svg width="20" height="20" viewBox="0 0 20 20" fill="none" xmlns="http://www.w3.org/2000/svg">
<path d="M1 10.4375C1 5.21875 5.21875 1 10.4375 1C15.6562 1 19.9062 5.21875 19.9062 10.4375C19.9062 15.6562 15.6562 19.9062 10.4375 19.9062C5.21875 19.9062 1 15.6562 1 10.4375Z" fill="#8A99AF"/>
<path d="M10.25 8.5H9.75C9.375 8.5 9.03125 8.8125 9.03125 9.21875V14.4688C9.03125 14.8438 9.34375 15.1875 9.75 15.1875H10.25C10.625 15.1875 10.9688 14.875 10.9688 14.4688V9.21875C10.9688 8.8125 10.625 8.5 10.25 8.5Z" fill="white"/>
<path d="M10 5C9.46032 5 9 5.44444 9 6C9 6.55556 9.44444 7 10 7C10.5556 7 11 6.55556 11 6C11 5.44444 10.5397 5 10 5Z" fill="white"/>
</svg>
